<?xml version="1.0" encoding="utf-8"?><!-- Uploaded to: SVG Repo, www.svgrepo.com, Generator: SVG Repo Mixer Tools -->
<svg fill="#000000" width="800px" height="800px" viewBox="0 0 24 24" xmlns="http://www.w3.org/2000/svg">
  <path fill-rule="evenodd" d="M1,21 L1,19 C2.1045695,19 3,19.8954305 3,21 L1,21 Z M7,21 L5,21 C5,18.790861 3.209139,17 1,17 L1,15 C4.3137085,15 7,17.6862915 7,21 Z M11,21 L9,21 C9,16.581722 5.418278,13 1,13 L1,11 C6.5228475,11 11,15.4771525 11,21 Z M3,9 L1,9 L1,5 C1,3.8954305 1.8954305,3 3,3 L21,3 C22.1045695,3 23,3.8954305 23,5 L23,19 C23,20.1045695 22.1045695,21 21,21 L13,21 L13,19 L21,19 L21,5 L3,5 L3,9 Z"/>
</svg>