<svg fill="#000000" version="1.1" id="Capa_1" xmlns="http://www.w3.org/2000/svg" xmlns:xlink="http://www.w3.org/1999/xlink" 
	 width="800px" height="800px" viewBox="0 0 547.74 547.74"
	 xml:space="preserve">
<g>
	<g>
		<path d="M273.87,547.74c151.256,0,273.87-122.617,273.87-273.87S425.126,0,273.87,0S0,122.617,0,273.87
			S122.614,547.74,273.87,547.74z M354.122,46.31c40.318,14.217,75.723,38.847,102.987,70.662L356.255,219.99
			c-9.939-15.166-23.954-27.421-40.487-35.208L354.122,46.31z M314.626,35.144l-11.539,143.704
			c-5.33-1.625-10.783-2.794-16.288-3.498L268.062,31.824C283.656,31.429,299.256,32.543,314.626,35.144z M273.87,228.735
			c24.927,0,45.135,20.208,45.135,45.135s-20.208,45.135-45.135,45.135s-45.135-20.208-45.135-45.135
			S248.943,228.735,273.87,228.735z M211.709,350.22c14.18,11.53,31.294,18.854,49.269,21.246l-49.177,135.519
			c-40.481-10.799-78.015-32.045-108.291-62.229L211.709,350.22z"/>
	</g>
</g>
</svg>
