<?xml version="1.0" encoding="utf-8"?>
<svg fill="#000000" version="1.1" id="Capa_1" xmlns="http://www.w3.org/2000/svg" xmlns:xlink="http://www.w3.org/1999/xlink" 
	 width="800px" height="800px" viewBox="0 0 400 400" xml:space="preserve">
<g>
	<g>
		<path d="M364.992,196.363c-0.784-0.625-1.599-1.251-2.449-1.886c-2.827-40.258-20.361-77.712-49.682-105.904
			C282.334,59.221,242.253,43.057,200,43.057S117.666,59.222,87.139,88.573c-29.321,28.192-46.855,65.646-49.682,105.905
			c-0.852,0.636-1.666,1.263-2.449,1.886C12.432,214.342,0,238.412,0,264.141c0,25.729,12.432,49.798,35.007,67.775
			c19.897,15.846,45.273,24.969,69.663,25.026c4.768,0,9.252-1.854,12.626-5.223c3.388-3.377,5.252-7.873,5.252-12.657V189.217
			c0-4.783-1.864-9.278-5.253-12.66c-3.375-3.365-7.866-5.219-12.669-5.219c-1.875,0.004-3.769,0.064-5.676,0.179
			c14.572-42.573,55.133-72.269,101.05-72.269s86.479,29.696,101.05,72.27c-1.919-0.116-3.827-0.176-5.719-0.18
			c-4.77,0-9.251,1.854-12.628,5.222c-3.386,3.379-5.251,7.875-5.251,12.657v149.848c0,4.783,1.866,9.279,5.253,12.658
			c3.375,3.367,7.859,5.221,12.626,5.221h0.043c24.346-0.059,49.721-9.182,69.619-25.024C387.568,313.938,400,289.867,400,264.141
			C400,238.412,387.568,214.342,364.992,196.363z"/>
	</g>
</g>
</svg>
