<!DOCTYPE svg PUBLIC "-//W3C//DTD SVG 1.1//EN" "http://www.w3.org/Graphics/SVG/1.1/DTD/svg11.dtd">
<!-- Uploaded to: SVG Repo, www.svgrepo.com, Transformed by: SVG Repo Mixer Tools -->
<svg fill="#000000" version="1.1" id="Capa_1" xmlns="http://www.w3.org/2000/svg" xmlns:xlink="http://www.w3.org/1999/xlink" width="800px" height="800px" viewBox="0 0 450 450" xml:space="preserve" stroke="#000000" stroke-width="0.00408328">
<g id="SVGRepo_bgCarrier" stroke-width="0"/>
<g id="SVGRepo_tracerCarrier" stroke-linecap="round" stroke-linejoin="round"/>
<g id="SVGRepo_iconCarrier"> <g> <path d="M376.321,0.195H32.001C14.357,0.195,0,14.547,0,32.185v343.959c0,17.638,14.357,31.989,32.001,31.989h344.326 c17.644,0,32.001-14.352,32.001-31.989V32.185C408.322,14.547,393.964,0.195,376.321,0.195z M354.634,36.609 c7.571,0,13.713,6.144,13.713,13.716s-6.142,13.716-13.713,13.716c-7.578,0-13.719-6.144-13.719-13.716 S347.056,36.609,354.634,36.609z M305.492,36.609c7.578,0,13.725,6.144,13.725,13.716s-6.146,13.716-13.725,13.716 c-7.565,0-13.707-6.144-13.707-13.716S297.926,36.609,305.492,36.609z M371.751,371.569H36.57V98.081h335.188v273.488H371.751z M65.792,245.882c0-2.506,2.033-4.539,4.54-4.539h45.067l17.569-59.055c0.577-1.924,2.344-3.242,4.354-3.242l0,0 c2.01,0,3.783,1.324,4.344,3.257l17.428,59.04h20.607l20.017-95.609c0.452-2.169,2.495-3.683,4.622-3.608 c2.217,0.091,4.038,1.761,4.324,3.957L228.9,304.21l13.01-98.154c0.29-2.122,2.01-3.759,4.144-3.925 c2.211-0.118,4.103,1.183,4.717,3.239l14.321,48.35l3.979-12.129c0.614-1.867,2.353-3.127,4.314-3.127h64.611 c2.506,0,4.539,2.033,4.539,4.54c0,2.506-2.033,4.539-4.539,4.539h-61.324l-7.483,22.821c-0.627,1.892-2.312,3.074-4.386,3.127 c-1.986-0.029-3.724-1.342-4.285-3.25l-12.401-41.866l-14.788,111.571c-0.302,2.258-2.229,3.942-4.498,3.942h-0.012 c-2.282-0.006-4.209-1.696-4.492-3.966l-21.244-165.942l-15.244,72.835c-0.443,2.104-2.297,3.605-4.445,3.605h-27.689 c-2.015,0-3.783-1.324-4.353-3.251l-14.047-47.605l-14.165,47.617c-0.574,1.921-2.341,3.239-4.351,3.239H70.332 C67.826,250.422,65.792,248.389,65.792,245.882z"/> </g> </g>
</svg>
