<?xml version="1.0" encoding="UTF-8" standalone="no"?>
<!-- Uploaded to: SVG Repo, www.svgrepo.com, Generator: SVG Repo Mixer Tools -->
<svg xmlns:dc="http://purl.org/dc/elements/1.1/"
     xmlns:cc="http://creativecommons.org/ns#"
     xmlns:rdf="http://www.w3.org/1999/02/22-rdf-syntax-ns#"
     xmlns:svg="http://www.w3.org/2000/svg"
     xmlns="http://www.w3.org/2000/svg"
     xmlns:xlink="http://www.w3.org/1999/xlink"
     width="128" height="128" version="1.1">
    <title>Save-As Icon</title>
    <desc>This is shape (source) for Clarity vector icon theme for gtk</desc>
    <metadata>
        <rdf:RDF>
            <cc:Work rdf:about="">
                <dc:title>Save-As Icon</dc:title>
                <dc:description>This is shape (source) for Clarity vector icon theme for gtk</dc:description>
                <dc:creator>
                    <cc:Agent>
                        <dc:title>Jakub Jankiewicz</dc:title>
                    </cc:Agent>
                </dc:creator>
                <dc:rights>
                    <cc:Agent>
                        <dc:title>Jakub Jankiewicz</dc:title>
                    </cc:Agent>
                </dc:rights>
                <dc:date>2010</dc:date>
                <dc:format>image/svg+xml</dc:format>
                <dc:type rdf:resource="http://purl.org/dc/dcmitype/StillImage" />
                <cc:license rdf:resource="http://creativecommons.org/licenses/by-sa/3.0/" />
             </cc:Work>
        </rdf:RDF>
    </metadata>
    <path d="m 106.14802,9.8174808 c -0.69945,0.05836 -1.44764,0.3851432 -2.03125,0.9687502 l -6.312497,6.3125 13.937497,13.9375 6.34375,-6.3125 c 1.16722,-1.167213 1.31701,-2.870496 0.34375,-3.84375 l -10.4375,-10.4375 c -0.48663,-0.4866312 -1.1443,-0.6833572 -1.84375,-0.6250002 z M 16.054273,18.629981 c -3.96276,0 -7.1249997,3.162236 -7.1249997,7.125 l 0,73.84375 c 0,1.773369 0.59737,2.347369 1.6249997,3.374999 l 13.90625,13.90625 c 1.05639,1.05639 1.88579,1.3125 3.25,1.3125 l 76.968747,0 c 3.96276,0 7.125,-3.19348 7.125,-7.15625 l 0,-76.062499 -8.21875,8.21875 a 2.8488206,2.8488206 0 0 1 -1.0625,0.6875 2.8488206,2.8488206 0 0 1 -0.65625,1.03125 l -4.531247,4.53125 0,14.5 -15.21875,0 -20.84375,8.5625 c -0.50376,0.206891 -1.03178,0.396671 -1.75,0.4375 -0.71822,0.04083 -1.89183,-0.157309 -2.71875,-1.0625 -0.82692,-0.905191 -0.90228,-1.980261 -0.84375,-2.65625 0.05853,-0.675989 0.23289,-1.18929 0.4375,-1.6875 l 1.46875,-3.59375 -34.4375,0 0,-34.46875 57.96875,0 2.53125,-2.53125 a 2.8488206,2.8488206 0 0 1 1.0625,-0.6875 2.8488206,2.8488206 0 0 1 0.65625,-1 l 6.625,-6.625 -76.21875,0 z m 80.03125,0.1875 -8.4375,8.4375 13.937497,13.9375 8.4375,-8.4375 -13.937497,-13.9375 z m -10.15625,10.15625 -15.59375,15.59375 13.96875,13.9375 15.59375,-15.59375 -13.96875,-13.9375 z m -17.34375,17.59375 c -0.32967,0.02101 -0.6214,0.329524 -0.78125,0.71875 l -8.78125,21.375 c -0.54748,1.333046 -0.14826,1.754499 1.15625,1.21875 l 21.25,-8.71875 c 0.83734,-0.343888 1.12932,-0.933185 0.6875,-1.375 l -12.90625,-12.90625 c -0.22309,-0.223089 -0.4272,-0.325107 -0.625,-0.3125 z m -31.875,29.3125 42.9375,0 c 3.96276,0 7.15625,3.193486 7.15625,7.15625 l 0,20.374999 c 0,3.96276 -3.19349,7.15625 -7.15625,7.15625 l -42.9375,0 c -3.96276,0 -7.125,-3.19349 -7.125,-7.15625 l 0,-20.374999 c 0,-3.962764 3.16224,-7.15625 7.125,-7.15625 z m 2.9375,2.84375 0,23.874999 15.09375,0 0,-23.874999 -15.09375,0 z"/>
</svg>